<svg xmlns="http://www.w3.org/2000/svg" xmlns:xlink="http://www.w3.org/1999/xlink" width="605" height="444"><defs><filter id="a" width="159.6%" height="193.3%" x="-24.2%" y="-37.9%" filterUnits="objectBoundingBox"><feOffset dx="25" dy="25" in="SourceAlpha" result="shadowOffsetOuter1"/><feGaussianBlur in="shadowOffsetOuter1" result="shadowBlurOuter1" stdDeviation="40"/><feColorMatrix in="shadowBlurOuter1" values="0 0 0 0 0.212302148 0 0 0 0 0.325209598 0 0 0 0 0.419299139 0 0 0 0.300726617 0"/></filter><rect id="b" width="445" height="284" x="0" y="0" rx="8"/></defs><g fill="none" fill-rule="evenodd"><g transform="translate(55 55)"><use xlink:href="#b" fill="#000" filter="url(#a)"/><use xlink:href="#b" fill="#1B262F"/></g><path fill="#2E3F4D" d="M63 55h429a8 8 0 0 1 8 8v32H55V63a8 8 0 0 1 8-8z"/><g transform="translate(71 67)"><circle cx="8" cy="8" r="8" fill="#BA4270"/><circle cx="30.4" cy="8" r="8" fill="#527695"/><circle cx="52.8" cy="8" r="8" fill="#36536B"/></g><text fill="#FBFCFE" font-family="sans-serif" font-size="13" transform="translate(55 55)"><tspan x="32" y="86">&lt;form id=&quot;form-id&quot; method=&quot;GET&quot;&gt; &lt;/form&gt;</tspan> <tspan x="32" y="106">&lt;script</tspan> <tspan x="32" y="126"> src=&quot;https://loremipsum.com/api.js&quot;</tspan> <tspan x="32" y="146"> data-client-name=&quot;Your Company&apos;s Name&quot;</tspan> <tspan x="32" y="166"> data-form-id=&quot;form-id&quot;</tspan> <tspan x="32" y="186"> data-key=&quot;test_key&quot;</tspan> <tspan x="32" y="206"> data-product=&quot;transactions&quot;</tspan> <tspan x="32" y="226"> data-env=&quot;sandbox&quot;&gt;</tspan> <tspan x="32" y="246">&lt;/script&gt;</tspan></text></g></svg>